<svg id="Layer_1" data-name="Layer 1" xmlns="http://www.w3.org/2000/svg" viewBox="0 0 28 27"><defs><style>.cls-1{fill:#fff;}</style></defs><path class="cls-1" d="M13.9.17c-3.53,0-4,0-5.36.07A9.68,9.68,0,0,0,5.39.85a6.18,6.18,0,0,0-2.3,1.5,6.18,6.18,0,0,0-1.5,2.3A9.43,9.43,0,0,0,1,7.8C.92,9.18.9,9.63.9,13.16s0,4,.08,5.35a9.68,9.68,0,0,0,.61,3.15A6.28,6.28,0,0,0,3.08,24a6.29,6.29,0,0,0,2.31,1.5,9.68,9.68,0,0,0,3.15.61c1.38.06,1.83.07,5.35.07s4,0,5.36-.07a9.68,9.68,0,0,0,3.15-.61,6.66,6.66,0,0,0,3.8-3.8,9.68,9.68,0,0,0,.61-3.15c.06-1.39.07-1.83.07-5.35s0-4-.07-5.36a9.68,9.68,0,0,0-.61-3.15,6.18,6.18,0,0,0-1.5-2.3A6.18,6.18,0,0,0,22.4.85,9.74,9.74,0,0,0,19.25.24C17.86.18,17.42.17,13.89.17ZM12.73,2.51H13.9c3.46,0,3.87,0,5.24.07A7.22,7.22,0,0,1,21.56,3a4.09,4.09,0,0,1,1.49,1,4,4,0,0,1,1,1.49,7.22,7.22,0,0,1,.45,2.42c.06,1.36.07,1.78.07,5.24s0,3.88-.07,5.25A7.15,7.15,0,0,1,24,20.81a4.3,4.3,0,0,1-2.46,2.46,7.22,7.22,0,0,1-2.42.45c-1.36.06-1.78.08-5.24.08s-3.88,0-5.25-.08a7.22,7.22,0,0,1-2.42-.45,4,4,0,0,1-1.49-1,3.93,3.93,0,0,1-1-1.49,7.15,7.15,0,0,1-.45-2.41c-.06-1.37-.07-1.78-.07-5.25s0-3.88.07-5.25a7.21,7.21,0,0,1,.45-2.41A3.93,3.93,0,0,1,4.74,4,4.11,4.11,0,0,1,6.23,3a7.3,7.3,0,0,1,2.42-.44c1.2-.06,1.66-.07,4.08-.08Zm8.1,2.15a1.56,1.56,0,1,0,1.56,1.56,1.56,1.56,0,0,0-1.56-1.56ZM13.9,6.48a6.67,6.67,0,1,0,6.67,6.68A6.68,6.68,0,0,0,13.9,6.48Zm0,2.35a4.33,4.33,0,1,1-4.33,4.33A4.33,4.33,0,0,1,13.9,8.83Z"/></svg>