<?xml version="1.0" encoding="utf-8"?>
<!-- Generator: Adobe Illustrator 25.4.1, SVG Export Plug-In . SVG Version: 6.00 Build 0)  -->
<svg version="1.1" id="Layer_1" xmlns="http://www.w3.org/2000/svg" xmlns:xlink="http://www.w3.org/1999/xlink" x="0px" y="0px"
	 viewBox="0 0 882.8 641.3" style="enable-background:new 0 0 882.8 641.3;" xml:space="preserve">
<style type="text/css">
	.st0{fill:#E6EBFF;}
	.st1{fill:#66A9FF;}
	.st2{fill:#995900;}
	.st3{fill:#002577;}
</style>
<path class="st0" d="M31.5,619.6H390V46H188.9L31.5,619.6z"/>
<path class="st1" d="M593.1,619.6l200.6-444.5L719.3,10.5H432.8l74.4,165.1L306.5,620.1L593.1,619.6z"/>
<path class="st2" d="M406.4,619.6h43.2c0,0-179-487.7-68.2-550.1c11.5-7.2,17.8-14.9,17.8-23.5h-265c0,10.1,9.1,19.7,25,26.9
	C363.6,196.7,406.4,619.6,406.4,619.6L406.4,619.6z"/>
<path class="st3" d="M867.6,619.6L724.1,46h-215l143.5,573.6H867.6z"/>
<g id="лого">
	<path class="st0" d="M-266.1,243.9h27.5v-44H-254L-266.1,243.9z"/>
	<path class="st1" d="M-223,243.9l15.4-34.1l-5.7-12.6h-22l5.7,12.6l-15.4,34.1H-223z"/>
	<path class="st2" d="M-237.3,243.9h3.3c0,0-13.7-37.4-5.2-42.2c0.9-0.5,1.4-1.1,1.4-1.8h-20.4c0,0.8,0.7,1.5,1.9,2.1
		C-240.6,211.4-237.3,243.9-237.3,243.9L-237.3,243.9z"/>
	<path class="st3" d="M-201.9,243.9l-11-44h-16.5l11,44H-201.9z"/>
</g>
</svg>
