<svg id="Layer_1" data-name="Layer 1" xmlns="http://www.w3.org/2000/svg" viewBox="0 0 93 92"><defs><style>.cls-1,.cls-2{fill:none;stroke:#5a626e;}.cls-1{stroke-miterlimit:10;}.cls-2{stroke-linecap:round;stroke-linejoin:round;}</style></defs><path class="cls-1" d="M91.11,45.79a43.7,43.7,0,0,1-8.19,25.56c-.54.76-1.1,1.49-1.68,2.21a44,44,0,1,1,9.87-27.77Z"/><circle class="cls-1" cx="47.58" cy="16.3" r="9.77"/><path class="cls-1" d="M40.8,28.24a11.66,11.66,0,0,1,13.73.13"/><circle class="cls-2" cx="31.78" cy="36.98" r="12.56"/><path class="cls-2" d="M12.24,72.62c1.51-13.09,9.69-23.08,19.54-23.08,6.55,0,12.35,4.41,15.95,11.21"/><circle class="cls-2" cx="63.4" cy="37.58" r="12.8"/><path class="cls-2" d="M43.23,78.36c0-.89,0-1.76.08-2.62,1-14.22,9.58-25.36,20.09-25.36,9.39,0,17.29,8.91,19.52,21"/></svg>